<?xml version="1.0" encoding="UTF-8"?>
<svg version="1.1" xmlns="http://www.w3.org/2000/svg" width="144" height="135">
<path d="M0 0 C47.52 0 95.04 0 144 0 C144 44.55 144 89.1 144 135 C96.48 135 48.96 135 0 135 C0 90.45 0 45.9 0 0 Z " fill="#2A976F" transform="translate(0,0)"/>
<path d="M0 0 C47.52 0 95.04 0 144 0 C144 44.55 144 89.1 144 135 C96.48 135 48.96 135 0 135 C0 90.45 0 45.9 0 0 Z M27.921875 22.41796875 C22.4057772 29.82882372 16.95875613 39.63013958 16.82299805 49.01147461 C16.81016281 49.79006332 16.79732758 50.56865204 16.78410339 51.37083435 C16.77671646 52.20623245 16.76932953 53.04163055 16.76171875 53.90234375 C16.753647 54.77589005 16.74557526 55.64943634 16.73725891 56.54945374 C16.72343818 58.40119457 16.71270704 60.25296066 16.70483398 62.10473633 C16.69337612 63.97720941 16.67302394 65.84965145 16.64331055 67.72192383 C16.37223246 84.82104495 18.12326248 98.84440204 29.9609375 112.21484375 C37.42305948 119.44117378 48.48703281 125.99616438 59.0715332 126.19287109 C59.86368729 126.20893402 60.65584137 126.22499695 61.47200012 126.24154663 C65.12202616 126.2866852 68.77187746 126.32714601 72.42211914 126.35009766 C74.32947092 126.36653062 76.23676444 126.39364947 78.14379883 126.43212891 C94.37703404 126.75727426 108.57811106 125.66136512 121 114 C121.61101562 113.48953125 122.22203125 112.9790625 122.8515625 112.453125 C131.99287311 104.31856666 136.38301846 92.99513135 137.12356567 80.99822998 C137.32565087 76.33938428 137.37153644 71.68401765 137.37060547 67.02124023 C137.37498642 64.5700973 137.41144201 62.12074907 137.44921875 59.66992188 C137.55903317 44.46600969 134.16205264 32.11046016 123.78125 20.5234375 C113.62082499 10.65990803 100.62880733 5.70705023 86.58203125 5.6640625 C85.80292892 5.6574057 85.0238266 5.6507489 84.22111511 5.64389038 C82.58159723 5.63382954 80.94203895 5.62907131 79.30249023 5.62939453 C76.83571265 5.62504097 74.37075676 5.58870784 71.90429688 5.55078125 C54.86062287 5.42807615 40.03949154 9.72451507 27.921875 22.41796875 Z " fill="#F5FDFA" transform="translate(0,0)"/>
<path d="M0 0 C8.10316556 4.41234015 12.17031083 10.55794036 15.28125 19.2421875 C16.84870199 27.35464896 14.27636633 34.70581768 9.80859375 41.47265625 C4.79158049 47.79433017 -1.0749973 51.59174223 -9.12109375 52.71875 C-18.14810235 53.09119987 -25.0118687 51.50334141 -31.78125 45.375 C-38.35451912 38.33612432 -40.24895304 31.95637177 -40.0078125 22.3984375 C-39.40733146 15.84183369 -36.92326132 10.3318591 -32.71875 5.2421875 C-22.46164458 -2.8018464 -12.27995464 -5.63478931 0 0 Z " fill="#2E9972" transform="translate(88.71875,40.7578125)"/>
<path d="M0 0 C8.10316556 4.41234015 12.17031083 10.55794036 15.28125 19.2421875 C16.84870199 27.35464896 14.27636633 34.70581768 9.80859375 41.47265625 C4.79158049 47.79433017 -1.0749973 51.59174223 -9.12109375 52.71875 C-18.14810235 53.09119987 -25.0118687 51.50334141 -31.78125 45.375 C-38.35451912 38.33612432 -40.24895304 31.95637177 -40.0078125 22.3984375 C-39.40733146 15.84183369 -36.92326132 10.3318591 -32.71875 5.2421875 C-22.46164458 -2.8018464 -12.27995464 -5.63478931 0 0 Z M-31.2734375 12.2421875 C-35.44821224 18.01917308 -35.39599952 23.25860152 -34.71875 30.2421875 C-33.13162721 37.1658775 -29.47673143 40.82321958 -23.83984375 44.9296875 C-18.57330712 48.1885389 -12.70448822 47.77459115 -6.71875 47.2421875 C-0.44313379 45.51457176 3.6878473 41.53713914 7.28125 36.2421875 C10.23904378 30.9181587 11.29403653 26.22152335 10.28125 20.2421875 C7.4533678 11.57525225 2.56981484 7.3039882 -5.09375 2.8671875 C-16.43882256 0.16597975 -23.98119429 3.55933047 -31.2734375 12.2421875 Z " fill="#F2F9F6" transform="translate(88.71875,40.7578125)"/>
<path d="M0 0 C-0.59387451 6.68108823 -2.22127846 14.14066453 -6.1953125 19.66015625 C-8.90903391 21.67488881 -11.81713915 22.58344514 -15 23.6875 C-16.85625 24.34298828 -16.85625 24.34298828 -18.75 25.01171875 C-22 26 -22 26 -25 26 C-26.76265308 19.77348524 -24.48387328 14.75044618 -22 9 C-17.44778878 2.37860187 -7.89615905 -0.85363882 0 0 Z " fill="#F2F9F6" transform="translate(89,53)"/>
<path d="M0 0 C-0.55704076 3.34224456 -1.15309118 6.13729133 -3 9 C-5.1640625 10.046875 -5.1640625 10.046875 -7.625 10.75 C-8.85089844 11.11351563 -8.85089844 11.11351563 -10.1015625 11.484375 C-11.04128906 11.73960938 -11.04128906 11.73960938 -12 12 C-11.62047013 8.87869403 -11.10885893 5.9499832 -10 3 C-6.34156643 0.37547157 -4.51981358 0 0 0 Z " fill="#349C76" transform="translate(82,60)"/>
</svg>
